<?xml version="1.0" encoding="UTF-8"?>
<svg width="800" height="600" viewBox="0 0 800 600" fill="none" xmlns="http://www.w3.org/2000/svg">
  <!-- 背景元素 -->
  <path d="M100 100h600v400h-600z" fill="#f3f4f6" opacity="0.5"/>
  
  <!-- 主要人物 -->
  <g transform="translate(300, 150)">
    <!-- 电脑屏幕 -->
    <rect x="0" y="0" width="200" height="150" rx="10" fill="#6366f1" opacity="0.9"/>
    <rect x="10" y="10" width="180" height="130" rx="5" fill="white"/>
    
    <!-- 屏幕内容 -->
    <rect x="30" y="30" width="140" height="10" rx="2" fill="#e2e8f0"/>
    <rect x="30" y="50" width="100" height="10" rx="2" fill="#e2e8f0"/>
    <rect x="30" y="70" width="120" height="10" rx="2" fill="#e2e8f0"/>
    
    <!-- 安全图标 -->
    <path d="M160 40l10 10m0-10l-10 10" stroke="#6366f1" stroke-width="2"/>
    <circle cx="160" cy="70" r="8" stroke="#6366f1" stroke-width="2" fill="none"/>
  </g>
  
  <!-- 装饰元素 -->
  <g transform="translate(200, 100)">
    <!-- 浮动图标1 -->
    <circle cx="50" cy="50" r="20" fill="#8b5cf6" opacity="0.2"/>
    <path d="M40 50l10 10l15-15" stroke="white" stroke-width="3"/>
    
    <!-- 浮动图标2 -->
    <circle cx="450" cy="250" r="25" fill="#6366f1" opacity="0.2"/>
    <rect x="435" y="235" width="30" height="30" rx="5" stroke="white" stroke-width="3" fill="none"/>
    
    <!-- 连接线 -->
    <path d="M100 150q100 50 200 0" stroke="#8b5cf6" stroke-width="2" opacity="0.3"/>
    <path d="M350 200q-100 50 -200 0" stroke="#6366f1" stroke-width="2" opacity="0.3"/>
  </g>
  
  <!-- 人物群组 -->
  <g transform="translate(500, 300)">
    <!-- 人物1 -->
    <circle cx="0" cy="0" r="30" fill="#6366f1"/>
    <circle cx="0" cy="-15" r="12" fill="white"/>
    <path d="M-15 5q15 20 30 0" stroke="white" stroke-width="2" fill="none"/>
    
    <!-- 人物2 -->
    <circle cx="60" cy="20" r="25" fill="#8b5cf6"/>
    <circle cx="60" cy="8" r="10" fill="white"/>
    <path d="M48 23q12 15 24 0" stroke="white" stroke-width="2" fill="none"/>
    
    <!-- 人物3 -->
    <circle cx="30" cy="-30" r="20" fill="#a78bfa"/>
    <circle cx="30" cy="-40" r="8" fill="white"/>
    <path d="M20 -30q10 12 20 0" stroke="white" stroke-width="2" fill="none"/>
  </g>
  
  <!-- 连接线和数据流 -->
  <g stroke="#6366f1" stroke-width="2" opacity="0.3">
    <path d="M200 400q100-100 200 0" />
    <path d="M500 300q-100-100 -200 0" />
    <path d="M300 200q100 100 200 0" />
  </g>
  
  <!-- 装饰性圆点 -->
  <g fill="#6366f1" opacity="0.2">
    <circle cx="150" cy="150" r="5" />
    <circle cx="650" cy="450" r="5" />
    <circle cx="400" cy="100" r="5" />
    <circle cx="200" cy="500" r="5" />
    <circle cx="600" cy="200" r="5" />
  </g>
</svg> 